<?xml version="1.0"?>
<svg id="Camada_1" data-name="Camada 1" xmlns="http://www.w3.org/2000/svg" version="1.1" viewBox="0 0 2231.4 256">
  <defs>
    <style>.cls-1{fill:#FFFFF0;}</style>
  </defs>
  <path class="cls-1" d="M241,58.1l-43.2-43.2c-9.6-9.6-22.6-15-36.2-15h-67.3c-13.6,0-26.6,5.4-36.2,15L15,58.1C5.4,67.7,0,80.8,0,94.4v67.3C0,175.2,5.4,188.3,15,197.9l43.2,43.2c9.6,9.6,22.6,15,36.2,15h67.3c13.6,0,26.6-5.4,36.2-15l43.2-43.2c9.6-9.6,15-22.6,15-36.2v-67.3c0-13.6-5.4-26.6-15-36.2ZM207.6,207.6c-1.1,1.1-3.5,1.7-6.8,1.7-9.8,0-24.7-5.4-40.8-14.7-6.5-3.8-13.1-8.1-19.7-12.9,7.2-6,14.4-12.6,21.5-19.7,7.1-7.1,13.7-14.3,19.8-21.5,8.5,11.6,15.4,23.1,20.3,33.9,8.9,19.5,8.2,30.8,5.6,33.3ZM151.1,151.1c-7.5,7.5-15.3,14.6-23.1,21-7.8-6.4-15.5-13.4-23.1-21-7.6-7.6-14.6-15.3-21-23.1,6.4-7.8,13.4-15.5,21-23.1,7.5-7.5,15.3-14.6,23.1-21,7.8,6.4,15.5,13.4,23.1,21,7.6,7.6,14.6,15.3,21,23.1-6.4,7.8-13.4,15.5-21,23.1ZM48.4,207.6c-2.5-2.5-3.2-13.8,5.6-33.3,4.9-10.8,11.8-22.3,20.3-33.9,6,7.2,12.7,14.4,19.8,21.5,7.1,7.1,14.3,13.7,21.5,19.7-6.6,4.8-13.2,9.2-19.7,12.9-16.1,9.4-31,14.7-40.8,14.7s-5.7-.6-6.8-1.7ZM48.4,48.4c1.1-1.1,3.5-1.7,6.8-1.7,9.8,0,24.7,5.4,40.8,14.7,6.5,3.8,13.1,8.1,19.7,12.9-7.2,6-14.4,12.6-21.5,19.7-7.1,7.1-13.7,14.3-19.8,21.5-8.5-11.6-15.4-23.1-20.3-33.9-8.9-19.5-8.2-30.8-5.6-33.3ZM161.9,94.1c-7.1-7.1-14.3-13.7-21.5-19.7,6.6-4.8,13.2-9.2,19.7-12.9,16.1-9.4,31-14.7,40.8-14.7s5.7.6,6.8,1.7c2.5,2.5,3.2,13.8-5.6,33.3-4.9,10.8-11.8,22.3-20.3,33.9-6-7.2-12.7-14.4-19.8-21.5ZM94.4,15.4h67.3c9.6,0,18.6,3.7,25.3,10.5l6.1,6.1c-17.7,2.8-41,14.3-65.1,32.5-24.1-18.2-47.4-29.7-65.1-32.5l6.1-6.1c6.8-6.8,15.8-10.5,25.3-10.5ZM15.4,161.6v-67.3c0-9.6,3.7-18.6,10.5-25.3l6.1-6.1c2.8,17.7,14.3,41,32.5,65.1-18.2,24.1-29.7,47.4-32.5,65.1l-6.1-6.1c-6.8-6.8-10.5-15.8-10.5-25.3ZM161.6,240.6h-67.3c-9.6,0-18.6-3.7-25.3-10.5l-6.1-6.1c17.7-2.8,41-14.3,65.1-32.5,24.1,18.2,47.4,29.7,65.1,32.5l-6.1,6.1c-6.8,6.8-15.8,10.5-25.3,10.5ZM240.6,161.6c0,9.6-3.7,18.6-10.5,25.3l-6.1,6.1c-2.8-17.7-14.3-41-32.5-65.1,18.2-24.1,29.7-47.4,32.5-65.1l6.1,6.1c6.8,6.8,10.5,15.8,10.5,25.3v67.3Z"></path>
  <g>
    <path class="cls-1" d="M447.4,196.1l-12.7-37h-56.6l-12.7,37h-24.2l49.7-136.5h30.9l49.7,136.5h-24.2ZM385.1,139.2h42.8l-3.6-10.7c-7.7-22.8-13.6-40.8-17.6-54.3h-.4c-6.8,22.2-12.6,40.3-17.4,54.3l-3.6,10.7Z"></path>
    <path class="cls-1" d="M526,95.9c12.3,0,22.4,3.5,30.4,10.6,8,7.1,12.5,16.3,13.5,27.5h-22.8c-.5-6.4-2.7-11.5-6.5-15.2-3.8-3.8-8.7-5.7-14.6-5.7s-13.6,3-17.9,9.1c-4.3,6.1-6.4,14.5-6.4,25.2s2.1,19.1,6.4,25.2c4.3,6.1,10.3,9.1,17.9,9.1s10.7-2.1,14.5-6.3c3.8-4.2,5.9-9.7,6.4-16.3h23c-1,11.9-5.5,21.5-13.4,28.9-7.9,7.4-18.1,11-30.5,11s-26-4.7-34.5-14c-8.6-9.3-12.8-21.9-12.8-37.6s4.3-28.3,12.8-37.6c8.6-9.3,20.1-14,34.5-14Z"></path>
    <path class="cls-1" d="M626.9,95.9c13,0,23,3.2,29.8,9.6,6.8,6.4,10.3,15.9,10.3,28.6v36.4c0,10.5.8,19.1,2.5,25.7h-19.8c-.9-4-1.3-8.5-1.3-13.6h-.4c-7.2,10.5-18.1,15.7-32.8,15.7s-18-2.7-24-8.1c-6-5.4-9-12.4-9-20.8s2.8-15,8.5-19.9c5.7-5,15.3-8.6,28.9-10.7,8.2-1.4,16.9-2.4,26.3-2.9v-3.8c0-13.4-6.3-20.1-19-20.1s-10.5,1.5-13.8,4.6c-3.3,3.1-5.1,7.2-5.4,12.5h-21.5c.5-9.7,4.2-17.6,11.2-23.8,7-6.1,16.8-9.2,29.4-9.2ZM645.8,154.7v-4.8c-8.3.5-15.8,1.3-22.4,2.5-7,1.2-12,2.9-14.9,5.2-2.9,2.3-4.3,5.7-4.3,10.2s1.5,7.8,4.5,10.5c3,2.6,7.3,3.9,12.8,3.9s13.3-2.2,17.6-6.5c2.6-2.7,4.3-5.5,5.3-8.5,1-3,1.4-7.1,1.4-12.4Z"></path>
    <path class="cls-1" d="M778.4,59.6v136.5h-21.3v-13.4h-.4c-2.8,5-6.8,8.9-12,11.6-5.2,2.7-10.8,4.1-17,4.1-12.4,0-22.3-4.6-29.6-13.9-7.4-9.3-11-21.6-11-37.1s3.6-28,10.9-37.3c7.3-9.3,17.1-13.9,29.5-13.9s11.7,1.3,16.8,4c5,2.7,9,6.4,11.8,11.1h.4v-51.8h21.9ZM734.1,113.3c-7.4,0-13.3,3.1-17.6,9.3-4.3,6.2-6.5,14.5-6.5,24.8s2.2,18.6,6.5,24.8c4.3,6.2,10.2,9.3,17.6,9.3s12.9-3.1,17.2-9.2c4.3-6.1,6.4-14.4,6.4-24.9s-2.1-19-6.4-25c-4.3-6.1-10-9.1-17.2-9.1Z"></path>
    <path class="cls-1" d="M846.8,182.9c6.1,0,11.2-1.5,15.1-4.4,3.9-2.9,6.4-6.8,7.4-11.7h22.4c-1.9,9.2-6.8,16.9-14.8,23-7.9,6.1-18,9.2-30.1,9.2s-26.2-4.8-34.6-14.4c-8.4-9.6-12.6-22.4-12.6-38.4s4.2-26.8,12.6-36.2c8.4-9.5,19.8-14.2,34.2-14.2s20.4,3,28.1,8.9c7.7,5.9,12.9,14,15.6,24.3,1.8,5.8,2.7,13.4,2.7,22.8h-71.5c.4,10.5,2.9,18.3,7.6,23.4,4.7,5.1,10.6,7.7,17.9,7.7ZM863.2,118.5c-4.4-4.3-10-6.5-16.8-6.5s-12.4,2.2-16.8,6.5c-4.4,4.3-7.1,10.7-8,19h49.3c-.8-8.3-3.4-14.6-7.8-19Z"></path>
    <path class="cls-1" d="M1022.5,96.4c10.5,0,18.7,3.4,24.5,10.2,5.9,6.8,8.8,16.6,8.8,29.5v60h-21.9v-57.9c0-16.1-5.9-24.2-17.6-24.2s-11.4,2.6-15.1,7.8-5.5,12.4-5.5,21.8v52.5h-21.9v-60.2c0-6.9-1.5-12.3-4.5-16.1-3-3.8-7.3-5.8-12.9-5.8s-11.6,2.6-15.1,7.9c-3.6,5.2-5.4,12.6-5.4,22.1v52.2h-21.9v-97.4h20.9v11.7h.4c6.9-9.3,15.9-14,27-14s23.6,5.9,28.8,17.6c7.5-11.8,18-17.6,31.3-17.6Z"></path>
    <path class="cls-1" d="M1104.7,59.6v20.9h-21.9v-20.9h21.9ZM1104.7,98.7v97.4h-21.9v-97.4h21.9Z"></path>
    <path class="cls-1" d="M1169.2,95.9c13,0,23,3.2,29.8,9.6,6.8,6.4,10.3,15.9,10.3,28.6v36.4c0,10.5.8,19.1,2.5,25.7h-19.8c-.9-4-1.3-8.5-1.3-13.6h-.4c-7.2,10.5-18.1,15.7-32.8,15.7s-18-2.7-24-8.1c-6-5.4-9-12.4-9-20.8s2.8-15,8.5-19.9c5.7-5,15.3-8.6,28.9-10.7,8.2-1.4,16.9-2.4,26.3-2.9v-3.8c0-13.4-6.3-20.1-19-20.1s-10.5,1.5-13.8,4.6c-3.3,3.1-5.1,7.2-5.4,12.5h-21.5c.5-9.7,4.2-17.6,11.2-23.8,7-6.1,16.8-9.2,29.4-9.2ZM1188.1,154.7v-4.8c-8.3.5-15.8,1.3-22.4,2.5-7,1.2-12,2.9-14.9,5.2-2.9,2.3-4.3,5.7-4.3,10.2s1.5,7.8,4.5,10.5c3,2.6,7.3,3.9,12.8,3.9s13.3-2.2,17.6-6.5c2.6-2.7,4.3-5.5,5.3-8.5,1-3,1.4-7.1,1.4-12.4Z"></path>
    <path class="cls-1" d="M1298.7,59.7v116.6h67.1v19.9h-90.1V59.7h23Z"></path>
    <path class="cls-1" d="M1420.3,183c6.1,0,11.2-1.5,15.1-4.4,3.9-2.9,6.4-6.8,7.4-11.7h22.4c-1.9,9.2-6.8,16.9-14.8,23-7.9,6.1-18,9.2-30.1,9.2s-26.2-4.8-34.6-14.4c-8.4-9.6-12.6-22.4-12.6-38.4s4.2-26.8,12.6-36.2c8.4-9.5,19.8-14.2,34.2-14.2s20.4,3,28.1,8.9c7.7,5.9,12.9,14,15.6,24.3,1.8,5.8,2.7,13.4,2.7,22.8h-71.5c.4,10.5,2.9,18.3,7.6,23.4,4.7,5.1,10.6,7.7,17.9,7.7ZM1436.7,118.6c-4.4-4.3-10-6.5-16.8-6.5s-12.4,2.2-16.8,6.5c-4.4,4.3-7.1,10.7-8,19h49.3c-.8-8.3-3.4-14.6-7.8-19Z"></path>
    <path class="cls-1" d="M1537.9,96.6c11.2,0,20,3.4,26.2,10.2,6.2,6.8,9.3,16.7,9.3,29.9v59.6h-21.9v-57.7c0-16.2-6.6-24.4-19.8-24.4s-11.9,2.4-16,7.3c-4.2,4.9-6.2,11.8-6.2,20.7v54.1h-21.9v-97.4h20.7v12.7h.4c6.9-10,16.6-15,29.1-15Z"></path>
    <path class="cls-1" d="M1684.9,59.7v136.5h-21.3v-13.4h-.4c-2.8,5-6.8,8.9-12,11.6-5.2,2.7-10.8,4.1-17,4.1-12.4,0-22.3-4.6-29.6-13.9-7.4-9.3-11-21.6-11-37.1s3.6-28,10.9-37.3c7.3-9.3,17.1-13.9,29.5-13.9s11.7,1.3,16.8,4c5,2.7,9,6.4,11.8,11.1h.4v-51.8h21.9ZM1640.6,113.4c-7.4,0-13.3,3.1-17.6,9.3-4.3,6.2-6.5,14.5-6.5,24.8s2.2,18.6,6.5,24.8c4.3,6.2,10.2,9.3,17.6,9.3s12.9-3.1,17.2-9.2c4.3-6.1,6.4-14.4,6.4-24.9s-2.1-19-6.4-25c-4.3-6.1-10-9.1-17.2-9.1Z"></path>
    <path class="cls-1" d="M1749.4,96c13,0,23,3.2,29.8,9.6,6.8,6.4,10.3,15.9,10.3,28.6v36.4c0,10.5.8,19.1,2.5,25.7h-19.8c-.9-4-1.3-8.5-1.3-13.6h-.4c-7.2,10.5-18.1,15.7-32.8,15.7s-18-2.7-24-8.1c-6-5.4-9-12.4-9-20.8s2.8-15,8.5-19.9c5.7-5,15.3-8.6,28.9-10.7,8.2-1.4,16.9-2.4,26.3-2.9v-3.8c0-13.4-6.3-20.1-19-20.1s-10.5,1.5-13.8,4.6c-3.3,3.1-5.1,7.2-5.4,12.5h-21.5c.5-9.7,4.2-17.6,11.2-23.8,7-6.1,16.8-9.2,29.4-9.2ZM1768.4,154.9v-4.8c-8.3.5-15.8,1.3-22.4,2.5-7,1.2-12,2.9-14.9,5.2-2.9,2.3-4.3,5.7-4.3,10.2s1.5,7.8,4.5,10.5c3,2.6,7.3,3.9,12.8,3.9s13.3-2.2,17.6-6.5c2.6-2.7,4.3-5.5,5.3-8.5,1-3,1.4-7.1,1.4-12.4ZM1776.8,59.7l-25.3,27.6h-17.8l15.5-27.6h27.6Z"></path>
    <path class="cls-1" d="M1864.8,97.5c2.6,0,5.2.3,8.1,1v19.4c-2.4-.5-5-.8-7.7-.8-8.7,0-15.4,2.7-20,8.1-4.7,5.4-7,13.2-7,23.3v47.7h-21.9v-97.4h20.3v14.4h.4c6.5-10.5,15.8-15.7,27.8-15.7Z"></path>
    <path class="cls-1" d="M1931.3,42.7v13.4h-22.1v143.8h22.1v13.4h-42.8V42.7h42.8Z"></path>
    <path class="cls-1" d="M1974.5,59.7v136.5h-23V59.7h23Z"></path>
    <path class="cls-1" d="M2094.3,196.3l-12.7-37h-56.6l-12.7,37h-24.2l49.7-136.5h30.9l49.7,136.5h-24.2ZM2032,139.3h42.8l-3.6-10.7c-7.7-22.8-13.6-40.8-17.6-54.3h-.4c-6.8,22.2-12.6,40.3-17.4,54.3l-3.6,10.7Z"></path>
    <path class="cls-1" d="M2122.5,42.7h42.8v170.7h-42.8v-13.4h22.1V56.1h-22.1v-13.4Z"></path>
  </g>
  <g>
    <path class="cls-1" d="M2204.5,42.7v3.8h-6.7v17.6h-4.4v-17.6h-6.7v-3.8h17.8Z"></path>
    <path class="cls-1" d="M2231.4,42.7v21.3h-4.2v-10.6c0-2.7,0-5.3.2-8h0c-.7,2.5-1.4,5.1-2.3,7.9l-3.4,10.8h-5l-3.4-10.8c-.9-2.7-1.6-5.3-2.3-7.9h0c.1,2.7.2,5.3.2,8v10.6h-4.2v-21.3h7.1l3.1,9.8c.8,2.7,1.5,5.3,2.1,7.8h0c.6-2.6,1.3-5.2,2.1-7.8l3.1-9.8h7.1Z"></path>
  </g>
</svg>
