<svg width="1135" height="128" viewBox="0 0 1135 128" fill="none" xmlns="http://www.w3.org/2000/svg">
<g clip-path="url(#clip0_283_1228)">
<path d="M194.66 29.9866L170.7 98.3666H184.007L189.607 81.56H215.42L221.12 98.3666H234.527L210.167 29.9866H194.66ZM192.953 71.7L192.9 71.6466L195.853 62.74C197.007 59.14 198.153 55.04 199.453 50.4866C200.353 47.2866 201.307 43.7333 202.307 39.88C203.36 43.7333 204.36 47.2333 205.26 50.4333C206.56 54.9866 207.813 59.0866 209.013 62.7866L212.067 71.6933H192.96L192.953 71.7Z" fill="white"/>
<path d="M272.687 84.4067H272.633C271.98 85.56 271.233 86.5067 270.333 87.26C269.433 88.06 268.333 88.66 267.133 89.06C265.933 89.5133 264.58 89.7133 263.133 89.7133C260.433 89.7133 258.133 89.0133 256.333 87.56C254.533 86.1067 253.133 84.16 252.18 81.66C251.227 79.16 250.78 76.36 250.78 73.2067C250.78 70.0533 251.233 67.1533 252.18 64.6533C253.127 62.1533 254.48 60.2 256.333 58.7533C258.187 57.3067 260.433 56.6 263.133 56.6C265.833 56.6 265.933 56.8 267.133 57.2533C268.333 57.7067 269.387 58.2533 270.287 59.0533C271.187 59.8067 271.94 60.7533 272.587 61.8067C273.24 62.86 273.687 64.06 273.94 65.4067L285.193 63.6067C284.693 61.0533 283.84 58.7533 282.54 56.7067C281.287 54.6533 279.687 52.9067 277.74 51.4533C275.793 50 273.587 48.9 271.14 48.1C268.64 47.3467 265.987 46.9467 263.087 46.9467C258.187 46.9467 253.88 48.0467 250.233 50.2467C246.58 52.4467 243.78 55.5 241.78 59.4533C239.78 63.4067 238.78 68.0067 238.78 73.2067C238.78 78.4067 239.78 82.96 241.78 86.9133C243.78 90.8667 246.58 93.9133 250.233 96.12C253.887 98.3267 258.133 99.42 263.087 99.42C268.04 99.42 268.74 99.02 271.24 98.22C273.74 97.42 275.94 96.2667 277.893 94.82C279.847 93.32 281.447 91.5667 282.693 89.52C283.993 87.4667 284.847 85.12 285.293 82.52L274.04 80.6667C273.74 82.0667 273.287 83.32 272.687 84.42V84.4067Z" fill="white"/>
<path d="M330.36 50.8466H330.46C328.46 49.4933 326.26 48.4933 323.76 47.8933C321.307 47.2933 318.76 46.9933 316.207 46.9933C313.653 46.9933 309.307 47.5466 306.353 48.5933C303.4 49.64 300.9 51.1933 298.853 53.2933C296.8 55.3466 295.4 57.9466 294.553 61.0466L305.607 62.8C305.96 61.6 306.607 60.5 307.507 59.5C308.407 58.5 309.607 57.7 311.06 57.1C312.513 56.5 314.213 56.2 316.113 56.2C318.013 56.2 319.713 56.5 321.013 57.1C322.313 57.7 323.313 58.6 324.013 59.7533C324.713 60.9066 325.067 62.3066 325.067 63.9066V64.2066C325.067 65.36 324.667 66.16 323.813 66.7066C322.96 67.26 321.613 67.66 319.813 67.9066C317.96 68.16 315.56 68.46 312.56 68.76C310.06 69.0133 307.66 69.4133 305.36 70.0133C303.06 70.6133 300.96 71.4666 299.107 72.5666C297.253 73.6666 295.807 75.1666 294.707 77.02C293.653 78.8733 293.107 81.2733 293.107 84.12C293.107 86.9666 293.86 90.2733 295.36 92.52C296.86 94.7733 298.913 96.52 301.46 97.6733C304.06 98.8266 306.96 99.4266 310.213 99.4266C313.467 99.4266 315.167 99.0733 317.113 98.3266C319.067 97.5733 320.667 96.6266 322.013 95.3733C323.313 94.1733 324.367 92.82 325.067 91.3733H325.467V98.3733H336.873V64.36C336.873 61.16 336.273 58.4066 335.12 56.2066C333.92 54.0066 332.367 52.2066 330.367 50.8533L330.36 50.8466ZM323.76 85.3066C322.807 86.9066 321.407 88.16 319.607 89.16C317.807 90.1133 315.707 90.6133 313.253 90.6133C310.8 90.6133 310.053 90.36 308.753 89.86C307.453 89.36 306.453 88.6066 305.7 87.6066C304.947 86.6066 304.6 85.4066 304.6 84.0066C304.6 82.6066 305 81.2066 305.853 80.2066C306.707 79.2533 307.807 78.4533 309.207 77.9066C310.607 77.36 312.207 76.9533 313.96 76.7066C314.813 76.6066 315.813 76.5066 316.913 76.3066C318.013 76.1533 319.167 75.9533 320.267 75.7533C321.367 75.5533 322.367 75.3 323.267 75.0533C324.12 74.8 324.767 74.5 325.167 74.2V80.0533H325.22C325.22 81.9533 324.72 83.7066 323.767 85.3066H323.76Z" fill="white"/>
<path d="M382.933 55.8H382.58C381.927 54.4466 380.98 53.1 379.727 51.7466C378.527 50.3933 376.927 49.2466 375.027 48.3466C373.127 47.4466 370.727 46.9466 367.873 46.9466C365.02 46.9466 360.32 47.9466 357.12 50C353.92 52.0533 351.42 55 349.567 58.9066C347.713 62.8133 346.767 67.5133 346.767 73.1133C346.767 78.7133 347.667 83.2666 349.52 87.1666C351.32 91.0666 353.82 94.0666 357.02 96.1733C360.22 98.2733 363.82 99.3266 367.873 99.3266C371.927 99.3266 373.027 98.8733 374.927 97.9266C376.827 97.0266 378.427 95.8733 379.68 94.5266C380.933 93.1733 381.88 91.7733 382.58 90.3733H383.18V98.3733H394.787V29.9866H382.933V55.8ZM381.78 81.6066L381.88 81.66C380.927 84.1133 379.527 86.06 377.727 87.4133C375.927 88.7666 373.673 89.4666 371.073 89.4666C368.473 89.4666 366.32 88.7666 364.473 87.3666C362.62 85.9666 361.273 84.0133 360.32 81.5666C359.367 79.0666 358.92 76.2666 358.92 73.0133C358.92 69.76 359.373 66.9133 360.32 64.46C361.273 62.0066 362.62 60.1066 364.42 58.7066C366.22 57.3066 368.42 56.6533 371.02 56.6533C373.62 56.6533 375.82 57.3066 377.673 58.6533C379.527 60.0066 380.927 61.9066 381.827 64.3533C382.78 66.8066 383.227 69.6533 383.227 73.0066C383.227 76.36 382.727 79.16 381.773 81.6133L381.78 81.6066Z" fill="white"/>
<path d="M445.253 53.2467L445.153 53.2933C443 51.14 440.5 49.5933 437.653 48.54C434.807 47.4867 431.8 46.94 428.6 46.94C423.8 46.94 419.593 48.04 415.993 50.2933C412.393 52.5467 409.593 55.5933 407.64 59.5467C405.687 63.5 404.687 68.1 404.687 73.2533C404.687 78.4067 405.687 83.1067 407.687 87.0067C409.687 90.9067 412.487 93.96 416.187 96.16C419.887 98.3133 424.24 99.4133 429.34 99.4133C434.44 99.4133 436.54 98.8133 439.593 97.6133C442.647 96.4133 445.147 94.76 447.147 92.6133C449.147 90.46 450.547 87.96 451.3 85.1133L440.393 83.36C439.893 84.8133 439.093 86.0133 438.093 87.0133C437.093 88.0133 435.84 88.7667 434.393 89.2667C432.947 89.7667 431.34 90.0667 429.593 90.0667C426.94 90.0667 424.64 89.5133 422.693 88.3667C420.74 87.2133 419.193 85.5667 418.14 83.3667C417.187 81.3667 416.64 79.0133 416.54 76.2667H452.153V72.6667C452.153 68.3133 451.553 64.5133 450.3 61.3133C449.047 58.1133 447.4 55.4133 445.247 53.26L445.253 53.2467ZM416.547 68.2C416.7 66.3 417.147 64.5467 417.9 62.9467C418.853 60.8933 420.253 59.2467 422.1 58.0467C423.953 56.8467 426.153 56.2467 428.7 56.2467C431.247 56.2467 433.5 56.8467 435.253 58C437.007 59.2 438.353 60.8533 439.253 63C439.907 64.5533 440.353 66.2533 440.507 68.2H416.547Z" fill="white"/>
<path d="M525.587 48.7933L525.64 48.8467C523.187 47.4933 520.44 46.8467 517.34 46.8467C514.24 46.8467 512.187 47.3467 509.84 48.3467C507.487 49.3467 505.54 50.8467 503.887 52.8C502.733 54.1533 501.833 55.7533 501.133 57.5533C500.18 54.5 498.833 52.0533 496.933 50.2533C494.58 47.9533 491.533 46.8 487.827 46.8C484.12 46.8 483.373 47.2533 481.327 48.2C479.273 49.1 477.473 50.5 475.927 52.4C474.827 53.7 473.973 55.3 473.273 57.1533L472.973 47.7H461.767V98.3667H473.62V67.4533C473.62 65.1533 474.073 63.2533 474.92 61.6533C475.773 60.1 476.973 58.9 478.42 58.1C479.873 57.3 481.473 56.9 483.22 56.9C485.773 56.9 487.873 57.7 489.473 59.2533C491.127 60.8533 491.927 62.9533 491.927 65.5533V98.3133H503.48V66.6533C503.48 64.7 503.833 63.0533 504.58 61.5533C505.333 60.0533 506.433 58.9533 507.833 58.1C509.233 57.2467 510.887 56.8467 512.833 56.8467C514.78 56.8467 517.387 57.6 519.133 59.1C520.887 60.6 521.733 62.9 521.733 66.1V98.3133H533.587V64.3C533.587 60.5 532.887 57.2467 531.433 54.6933C530.033 52.0933 528.08 50.14 525.58 48.7933H525.587Z" fill="white"/>
<path d="M551.6 27.3333C549.647 27.3333 548.047 27.9866 546.7 29.2333C545.347 30.4866 544.7 32.0333 544.7 33.8866C544.7 35.74 545.353 37.24 546.7 38.54C548.047 39.84 549.7 40.4933 551.6 40.4933C553.5 40.4933 555.153 39.84 556.553 38.54C557.907 37.24 558.607 35.6866 558.607 33.8866C558.607 32.0866 557.907 30.4866 556.553 29.2333C555.2 27.98 553.553 27.3333 551.6 27.3333Z" fill="white"/>
<path d="M557.547 47.6933H545.693V98.36H557.547V47.6933Z" fill="white"/>
<path d="M604.22 50.8466H604.32C602.32 49.4933 600.12 48.4933 597.62 47.8933C595.167 47.2933 592.62 46.9933 590.067 46.9933C587.513 46.9933 583.167 47.5466 580.213 48.5933C577.26 49.64 574.76 51.1933 572.713 53.2933C570.66 55.3466 569.26 57.9466 568.413 61.0466L579.467 62.8C579.82 61.6 580.467 60.5 581.367 59.5C582.267 58.5 583.467 57.7 584.92 57.1C586.373 56.5 588.073 56.2 589.973 56.2C591.873 56.2 593.573 56.5 594.873 57.1C596.173 57.7 597.173 58.6 597.873 59.7533C598.573 60.9066 598.927 62.3066 598.927 63.9066V64.2066C598.927 65.36 598.527 66.16 597.673 66.7066C596.82 67.26 595.473 67.66 593.673 67.9066C591.873 68.16 589.42 68.46 586.42 68.76C583.92 69.0133 581.52 69.4133 579.22 70.0133C576.92 70.6133 574.82 71.4666 572.967 72.5666C571.113 73.6666 569.667 75.1666 568.567 77.02C567.467 78.8733 566.967 81.2733 566.967 84.12C566.967 86.9666 567.72 90.2733 569.22 92.52C570.72 94.7733 572.773 96.52 575.32 97.6733C577.92 98.8266 580.82 99.4266 584.073 99.4266C587.327 99.4266 589.027 99.0733 590.973 98.3266C592.927 97.5733 594.527 96.6266 595.873 95.3733C597.173 94.1733 598.227 92.82 598.927 91.3733H599.327V98.3733H610.733V64.36C610.733 61.16 610.133 58.4066 608.98 56.2066C607.78 54.0066 606.227 52.2066 604.227 50.8533L604.22 50.8466ZM597.613 85.3066C596.66 86.9066 595.26 88.16 593.46 89.16C591.66 90.1133 589.56 90.6133 587.107 90.6133C584.653 90.6133 583.907 90.36 582.607 89.86C581.307 89.36 580.307 88.6066 579.553 87.6066C578.8 86.6066 578.453 85.4066 578.453 84.0066C578.453 82.6066 578.853 81.2066 579.707 80.2066C580.56 79.2533 581.66 78.4533 583.06 77.9066C584.46 77.36 586.06 76.9533 587.813 76.7066C588.667 76.6066 589.667 76.5066 590.767 76.3066C591.867 76.1533 593.02 75.9533 594.12 75.7533C595.22 75.5533 596.22 75.3 597.12 75.0533C597.973 74.8 598.62 74.5 599.02 74.2V80.0533H599.073C599.073 81.9533 598.573 83.7066 597.62 85.3066H597.613Z" fill="white"/>
<path d="M898.18 27.1866H886.527L879.927 41.24H888.527L898.18 27.1866Z" fill="white"/>
<path d="M733.42 53.2467L733.32 53.2933C731.167 51.14 728.667 49.5933 725.82 48.54C722.967 47.4867 719.967 46.94 716.767 46.94C711.967 46.94 707.76 48.04 704.16 50.2933C700.56 52.4933 697.76 55.5933 695.807 59.5467C693.853 63.5 692.853 68.1 692.853 73.2533C692.853 78.4067 693.853 83.1067 695.853 87.0067C697.853 90.9067 700.653 93.96 704.36 96.16C708.06 98.3133 712.413 99.4133 717.513 99.4133C722.613 99.4133 724.713 98.8133 727.767 97.6133C730.82 96.4133 733.32 94.76 735.32 92.6133C737.32 90.46 738.72 87.96 739.473 85.1133L728.567 83.36C728.067 84.8133 727.267 86.0133 726.267 87.0133C725.267 88.0133 724.013 88.7667 722.567 89.2667C721.12 89.7667 719.513 90.0667 717.767 90.0667C715.113 90.0667 712.813 89.5133 710.867 88.3667C708.92 87.22 707.367 85.5667 706.313 83.3667C705.36 81.3667 704.813 79.0133 704.713 76.2667H740.327V72.6667C740.327 68.3133 739.727 64.5133 738.473 61.3133C737.273 58.06 735.573 55.4133 733.42 53.26V53.2467ZM704.707 68.2C704.86 66.3 705.307 64.5467 706.06 62.9467C707.013 60.8933 708.413 59.2467 710.26 58.0467C712.107 56.8467 714.313 56.2467 716.86 56.2467C719.407 56.2467 721.66 56.8467 723.413 58C725.167 59.2 726.513 60.8533 727.413 63C728.067 64.5533 728.513 66.2533 728.667 68.2H704.707Z" fill="white"/>
<path d="M786.14 49.2933L786.193 49.1933C783.54 47.6933 780.493 46.94 776.987 46.94C773.48 46.94 769.287 48.04 766.48 50.2933C764.38 51.9467 762.68 54.2467 761.327 57.1467L761.227 47.6933H749.873V98.36H761.727V68.9C761.727 66.3467 762.18 64.1467 763.127 62.4467C764.08 60.6933 765.38 59.3933 767.027 58.4933C768.68 57.5933 770.527 57.14 772.58 57.14C775.733 57.14 778.18 58.0933 779.933 60.04C781.687 61.9867 782.587 64.6933 782.587 68.14V98.4H794.44V66.34C794.44 62.1867 793.687 58.6867 792.24 55.8333C790.787 52.9333 788.74 50.78 786.14 49.28V49.2933Z" fill="white"/>
<path d="M899.033 50.7933H899.133C897.133 49.44 894.933 48.44 892.433 47.84C889.933 47.24 887.433 46.94 884.88 46.94C882.327 46.94 877.98 47.4933 875.027 48.54C872.073 49.5933 869.573 51.14 867.527 53.24C865.473 55.2933 864.073 57.8933 863.227 60.9933L874.28 62.7467C874.633 61.5467 875.28 60.4467 876.18 59.4467C877.08 58.4467 878.28 57.6467 879.733 57.0467C881.187 56.4467 882.887 56.1467 884.787 56.1467C886.687 56.1467 888.387 56.4467 889.687 57.0467C890.987 57.6467 891.987 58.5467 892.687 59.7C893.387 60.8533 893.74 62.2533 893.74 63.8533V64.1533C893.74 65.3067 893.34 66.1067 892.487 66.6533C891.633 67.2067 890.287 67.6067 888.487 67.8533C886.633 68.1067 884.233 68.4067 881.233 68.7067C878.733 68.96 876.333 69.36 874.033 69.96C871.733 70.56 869.633 71.4133 867.78 72.5133C865.927 73.6133 864.48 75.1133 863.38 76.9667C862.327 78.82 861.78 81.22 861.78 84.0667C861.78 86.9133 862.533 90.22 864.033 92.4667C865.533 94.72 867.587 96.4667 870.133 97.62C872.733 98.7733 875.633 99.3733 878.887 99.3733C882.14 99.3733 883.84 99.02 885.787 98.2733C887.74 97.52 889.34 96.5733 890.687 95.32C891.987 94.12 893.04 92.7667 893.74 91.32H894.14V98.32H905.547V64.3067C905.547 61.1067 904.947 58.3533 903.793 56.1533C902.593 53.9533 901.04 52.1533 899.04 50.8L899.033 50.7933ZM892.427 85.3067C891.473 86.9067 890.073 88.16 888.273 89.16C886.473 90.1133 884.373 90.6133 881.92 90.6133C879.467 90.6133 878.72 90.36 877.42 89.86C876.12 89.36 875.12 88.6067 874.367 87.6067C873.613 86.6067 873.267 85.4067 873.267 84.0067C873.267 82.6067 873.667 81.2067 874.52 80.2067C875.373 79.2533 876.473 78.4533 877.873 77.9067C879.273 77.3533 880.873 76.9533 882.627 76.7067C883.48 76.6067 884.48 76.5067 885.58 76.3067C886.68 76.1533 887.833 75.9533 888.933 75.7533C890.033 75.5533 891.033 75.3 891.933 75.0533C892.787 74.8 893.433 74.5 893.833 74.2V80.0533H893.887C893.887 81.9533 893.387 83.7067 892.433 85.3067H892.427Z" fill="white"/>
<path d="M942.147 46.9933L942.2 47.0466C939.2 47.0466 936.6 47.8466 934.4 49.4C932.2 50.9533 930.647 53.2 929.7 56.1533H929.247V47.7H917.793V98.3666H929.647V68.8066C929.647 66.5066 930.147 64.5533 931.1 62.8533C932.053 61.1533 933.4 59.9 935.1 58.9533C936.8 58.0533 938.7 57.5533 940.8 57.5533C942.9 57.5533 942.953 57.6066 944.053 57.7533C945.153 57.8533 945.907 58.0066 946.407 58.1066V47.2533C945.853 47.1533 945.207 47.1 944.407 47.0533C943.607 47.0533 942.907 47 942.153 47L942.147 46.9933Z" fill="white"/>
<path d="M655.087 29.94H642.833V98.3667H685.647V87.96H655.087V29.94Z" fill="white"/>
<path d="M840.46 55.8H840.107C839.453 54.4467 838.507 53.1 837.253 51.7467C836 50.3933 834.453 49.2467 832.553 48.3467C830.653 47.4467 828.253 46.9467 825.4 46.9467C822.547 46.9467 817.847 47.9467 814.647 50C811.447 52.0533 808.947 55 807.093 58.9067C805.24 62.8133 804.293 67.5133 804.293 73.1133C804.293 78.7133 805.193 83.2667 807.047 87.1667C808.847 91.0667 811.347 94.0667 814.547 96.1733C817.747 98.2733 821.347 99.3267 825.4 99.3267C829.453 99.3267 830.553 98.8733 832.453 97.9267C834.353 96.9733 835.953 95.8733 837.207 94.5267C838.46 93.1733 839.407 91.7733 840.107 90.3733H840.707V98.3733H852.313V29.94H840.46V55.8ZM839.307 81.6067L839.407 81.66C838.453 84.1133 837.053 86.06 835.253 87.4133C833.453 88.8133 831.2 89.4667 828.6 89.4667C826 89.4667 823.847 88.7667 822 87.3667C820.2 85.9667 818.8 84.0133 817.847 81.5667C816.893 79.0667 816.447 76.2667 816.447 73.0133C816.447 69.76 816.9 66.9133 817.847 64.46C818.8 62.0067 820.147 60.1067 821.947 58.7067C823.747 57.3067 825.947 56.6533 828.547 56.6533C831.147 56.6533 833.347 57.3067 835.2 58.6533C837.053 60.0067 838.453 61.9067 839.353 64.3533C840.253 66.8067 840.753 69.6533 840.753 73.0067C840.753 76.36 840.253 79.16 839.3 81.6133L839.307 81.6067Z" fill="white"/>
<path d="M956.607 106.667H977.46V97.36H968.107V30.64H977.46V21.3333H956.607V106.667Z" fill="white"/>
<path d="M1001.87 29.94H989.62V98.32H1001.87V29.94Z" fill="white"/>
<path d="M1034.29 29.94L1010.33 98.32H1023.63L1029.23 81.5133H1055.05L1060.75 98.32H1074.15L1049.79 29.94H1034.29ZM1032.63 71.7L1032.59 71.6467L1035.54 62.74C1036.69 59.14 1037.84 55.04 1039.14 50.4867C1040.04 47.2867 1040.99 43.7333 1041.99 39.88C1043.05 43.7333 1044.05 47.2333 1044.95 50.4333C1046.25 54.9867 1047.5 59.0867 1048.7 62.7867L1051.75 71.6933H1032.65L1032.63 71.7Z" fill="white"/>
<path d="M1080.75 30.64H1090.11V97.36H1080.75V106.667H1101.61V21.3333H1080.75V30.64Z" fill="white"/>
<path d="M1112.31 23.1866H1115.57V31.9866H1117.77V23.1866H1121.02V21.3333H1112.31V23.1866Z" fill="white"/>
<path d="M1130.97 21.3333H1130.82L1129.12 26.2333C1129.02 26.4866 1128.97 26.7333 1128.87 27.1333C1128.77 27.4866 1128.67 27.8866 1128.57 28.2866C1128.47 28.6866 1128.41 29.04 1128.31 29.3866C1128.21 29.0333 1128.16 28.6866 1128.06 28.2866C1127.96 27.8866 1127.86 27.4866 1127.76 27.1333C1127.66 26.78 1127.56 26.48 1127.51 26.2333L1125.75 21.3333H1122.4V31.9866H1124.6V23.4333C1124.6 23.5866 1124.65 23.7333 1124.7 23.8866C1124.8 24.2866 1124.95 24.6866 1125.05 25.0866C1125.15 25.4866 1125.25 25.84 1125.35 26.14C1125.45 26.44 1125.55 26.74 1125.61 26.94L1127.41 31.9933H1129.26L1131.06 26.94C1131.11 26.74 1131.21 26.44 1131.31 26.14C1131.41 25.7866 1131.51 25.44 1131.61 25.04C1131.71 24.64 1131.81 24.24 1131.97 23.84C1131.97 23.64 1132.07 23.4866 1132.12 23.34V31.9933H1134.32V21.34H1130.97L1130.97 21.3333Z" fill="white"/>
<path d="M98.9133 7.5C94.1133 2.7 87.62 0 80.82 0H47.18C40.38 0 33.8867 2.7 29.0867 7.5L7.5 29.04C2.7 33.84 0 40.3867 0 47.18V80.82C0 87.5667 2.7 94.1133 7.5 98.9133L29.0933 120.507C33.8933 125.307 40.3867 128.007 47.1867 128.007H80.8267C87.6267 128.007 94.12 125.307 98.92 120.507L120.513 98.9133C125.313 94.1133 128.013 87.62 128.013 80.82V47.18C128.013 40.38 125.313 33.8867 120.513 29.0867L98.92 7.49333L98.9133 7.5ZM100.413 25.8867C101.213 25.8867 101.66 25.9867 101.96 26.0333C102.307 27.38 102.36 32.4333 97.6133 41.98C95.4133 46.4267 92.5133 51.0733 89.1133 55.7733C86.5667 52.8267 83.8667 49.9267 80.9667 47.0267C78.0667 44.1267 75.1667 41.4267 72.22 38.88C75.2667 36.68 78.32 34.68 81.3133 32.9333C92.2067 26.5867 98.3067 25.9333 100.407 25.9333V25.8867H100.413ZM82.6667 63.9733C79.8667 67.2733 76.8667 70.52 73.72 73.72C70.52 76.92 67.2733 79.92 63.9733 82.6667C60.6733 79.8667 57.4267 76.92 54.2267 73.72C51.0267 70.52 48.0267 67.2733 45.28 63.9733C48.08 60.6733 51.08 57.4267 54.2267 54.2267C57.3733 51.0267 60.6733 48.0267 63.9733 45.28C67.2733 48.08 70.52 51.0267 73.72 54.2267C76.92 57.4267 79.92 60.6733 82.6667 63.9733ZM36.2867 14.7467C39.1867 11.8467 43.0333 10.2467 47.1333 10.2467H80.7733C84.8733 10.2467 88.72 11.8467 91.62 14.7467L93.4667 16.5933C85.0667 18.64 74.6733 24.14 63.9267 32.24C53.18 24.14 42.7867 18.6933 34.3867 16.5933L36.2333 14.7467H36.28H36.2867ZM26.04 26.04C26.2867 25.9933 26.7867 25.8933 27.5867 25.8933C33.9333 25.8933 43.0333 30.7933 46.68 32.8933C49.68 34.64 52.7267 36.64 55.7733 38.84C52.8267 41.3867 49.9267 44.0867 47.0267 46.9867C44.1267 49.8867 41.4267 52.7867 38.88 55.7333C35.48 51.0333 32.58 46.3867 30.38 41.94C25.6333 32.3933 25.68 27.3467 26.0333 25.9933V26.04H26.04ZM14.7467 91.6667C11.8467 88.7667 10.2467 84.92 10.2467 80.82V47.18C10.2467 43.08 11.8467 39.2333 14.7467 36.3333L16.5933 34.4867C18.64 42.8867 24.14 53.28 32.1867 64.0267C24.0867 74.7733 18.64 85.1667 16.5933 93.5667L14.7467 91.72V91.6733V91.6667ZM27.54 102.06C26.74 102.06 26.2933 101.96 25.9933 101.913C25.6467 100.567 25.5933 95.5133 30.34 85.9667C32.54 81.52 35.44 76.8733 38.84 72.1733C41.3867 75.12 44.0867 78.02 46.9867 80.92C49.8867 83.82 52.7867 86.52 55.7333 89.0667C52.6867 91.2667 49.6333 93.2667 46.64 95.0133C35.7467 101.36 29.6467 102.013 27.5467 102.013V102.06H27.54ZM91.6667 113.207C88.7667 116.107 84.92 117.707 80.82 117.707H47.18C43.08 117.707 39.2333 116.107 36.3333 113.207L34.4867 111.36C42.8867 109.313 53.28 103.813 64.0267 95.7133C74.7733 103.813 85.1667 109.26 93.5667 111.36L91.72 113.207H91.6733H91.6667ZM101.913 101.913C101.667 101.96 101.167 102.06 100.367 102.06C94.02 102.06 84.92 97.16 81.2733 95.06C78.2733 93.3133 75.2267 91.3133 72.18 89.1133C75.1267 86.5667 78.0267 83.8667 80.9267 80.9667C83.8267 78.0667 86.5267 75.1667 89.0733 72.22C92.4733 76.92 95.3733 81.5667 97.5733 86.0133C102.32 95.56 102.273 100.607 101.92 101.96V101.913H101.913ZM117.707 80.7667C117.707 84.8667 116.107 88.7133 113.207 91.6133L111.36 93.46C109.313 85.06 103.813 74.6667 95.7667 63.92C103.867 53.1733 109.313 42.78 111.36 34.38L113.207 36.2267C116.107 39.1267 117.707 42.9733 117.707 47.0733V80.76V80.7667Z" fill="white"/>
</g>
<defs>
<clipPath id="clip0_283_1228">
<rect width="1134.33" height="128" fill="white"/>
</clipPath>
</defs>
</svg>
